<?xml version="1.0" standalone="no"?>
<!DOCTYPE svg PUBLIC "-//W3C//DTD SVG 20010904//EN"
 "http://www.w3.org/TR/2001/REC-SVG-20010904/DTD/svg10.dtd">
<svg version="1.0" xmlns="http://www.w3.org/2000/svg"
 width="1080.000000pt" height="1080.000000pt" viewBox="0 0 1080.000000 1080.000000"
 preserveAspectRatio="xMidYMid meet">

<g transform="translate(0.000000,1080.000000) scale(0.100000,-0.100000)"
fill="#000000" stroke="none">
<path d="M2063 6415 c-18 -8 -42 -29 -53 -47 -19 -32 -20 -49 -20 -771 0 -813
-2 -790 62 -823 42 -23 197 -26 246 -5 63 26 66 45 72 353 6 308 5 304 80 356
94 64 209 47 274 -41 20 -27 21 -44 26 -310 6 -307 8 -319 63 -353 44 -27 206
-27 255 -1 58 31 62 55 62 354 0 303 -9 365 -64 478 -90 181 -248 285 -434
285 -90 0 -154 -25 -220 -85 l-41 -36 -3 283 c-3 317 -7 336 -73 364 -45 18
-189 18 -232 -1z"/>
<path d="M1046 6355 c-123 -31 -243 -123 -309 -235 -55 -94 -72 -239 -42 -353
51 -196 188 -297 505 -374 117 -28 194 -62 211 -94 6 -13 9 -45 7 -76 -8 -91
-71 -136 -189 -136 -69 0 -121 27 -219 118 -68 62 -122 95 -156 95 -64 0 -186
-114 -200 -185 -9 -51 28 -117 111 -201 168 -169 435 -228 670 -149 183 61
290 157 347 313 31 84 31 283 0 362 -63 158 -186 232 -482 292 -172 34 -228
70 -237 152 -5 42 -3 48 29 80 71 71 188 74 274 5 122 -97 207 -91 289 20 76
105 80 153 14 221 -57 58 -122 97 -214 127 -101 32 -313 42 -409 18z"/>
<path d="M3910 5901 c-52 -17 -135 -65 -161 -92 l-26 -28 -16 39 c-21 55 -62
73 -167 74 -115 1 -157 -14 -181 -68 -17 -38 -19 -73 -19 -506 0 -538 -3 -522
85 -553 62 -22 185 -18 234 8 57 29 61 52 61 368 0 279 0 285 23 318 48 71
141 97 232 64 22 -8 59 -15 82 -15 87 0 153 103 153 236 0 61 -2 68 -33 99
-18 18 -51 38 -72 44 -54 16 -164 22 -195 12z"/>
<path d="M5791 5891 c-60 -23 -115 -61 -132 -93 -7 -12 -9 -41 -6 -67 3 -26
82 -231 180 -470 207 -505 211 -511 340 -511 61 0 113 29 146 83 16 27 151
379 151 396 0 23 28 -40 80 -179 72 -193 97 -241 148 -275 43 -29 125 -34 170
-11 62 32 80 68 256 496 95 234 177 439 180 456 15 68 -41 136 -144 175 -66
25 -110 24 -151 -4 -46 -31 -67 -71 -144 -284 -37 -100 -70 -183 -74 -183 -3
0 -37 86 -76 191 -58 160 -76 198 -107 229 -59 59 -139 75 -207 41 -69 -36
-91 -74 -165 -279 -38 -106 -70 -191 -72 -190 -1 2 -39 100 -84 218 -93 247
-108 270 -187 277 -31 2 -66 -3 -102 -16z"/>
<path d="M4787 5888 c-95 -12 -181 -60 -272 -152 -127 -128 -175 -242 -175
-414 0 -168 65 -311 197 -432 97 -88 174 -123 289 -128 117 -5 185 13 245 66
l43 39 18 -39 c23 -52 63 -68 173 -68 111 0 147 15 168 69 15 36 17 96 17 496
0 501 -2 520 -60 550 -41 21 -156 30 -209 15 -50 -13 -101 -58 -101 -89 0 -12
-2 -21 -4 -21 -2 0 -20 15 -40 34 -64 61 -175 90 -289 74z m203 -390 c26 -14
57 -41 75 -66 26 -37 30 -53 30 -107 0 -55 -4 -69 -31 -106 -77 -107 -223
-110 -307 -7 -60 74 -52 176 19 249 61 62 138 75 214 37z"/>
<path d="M7885 5888 c-176 -22 -367 -198 -428 -393 -30 -98 -30 -242 0 -340
45 -143 167 -286 300 -352 69 -34 85 -38 172 -41 112 -5 188 18 245 72 l34 32
14 -30 c25 -56 58 -71 171 -74 89 -3 106 0 135 18 18 11 38 32 45 48 16 37 23
866 7 949 -13 75 -38 100 -115 114 -118 22 -213 -6 -242 -72 l-17 -39 -30 29
c-69 65 -175 94 -291 79z m218 -398 c61 -42 82 -84 82 -166 0 -66 -3 -76 -31
-111 -44 -54 -86 -76 -148 -76 -62 0 -101 19 -149 72 -58 65 -62 150 -10 226
58 83 177 109 256 55z"/>
<path d="M8901 5889 c-50 -10 -67 -21 -87 -60 -12 -23 -14 -110 -14 -506 0
-454 1 -480 19 -509 25 -40 75 -58 166 -58 91 0 141 18 166 58 17 28 19 52 19
271 1 132 5 260 9 284 20 102 114 163 225 147 60 -9 107 -42 134 -96 21 -42
22 -55 22 -300 0 -286 4 -306 70 -344 46 -27 187 -28 242 -2 63 30 68 57 68
359 0 191 -4 281 -15 332 -34 162 -146 315 -279 380 -166 83 -320 66 -437 -48
l-37 -36 -6 38 c-3 20 -16 47 -28 58 -40 38 -140 51 -237 32z"/>
</g>
</svg>
